<svg xmlns="http://www.w3.org/2000/svg" viewBox="0 0 439.16 404.72"><defs><style>.cls-1{fill:#ff7643;}</style></defs><g id="Calque_2" data-name="Calque 2"><g id="Calque_1-2" data-name="Calque 1"><path class="cls-1" d="M164.44,171.57c-11.7,0-22.72,5.38-31.87,15.57a14.05,14.05,0,1,0,20.91,18.78c2.56-2.85,6.54-6.24,11-6.24s8.4,3.39,11,6.24a14.06,14.06,0,0,0,20.91-18.79c-9.15-10.18-20.17-15.56-31.87-15.56Z"/><path class="cls-1" d="M148.3,256.44c-13.36,12-14.46,25.23-2.46,38.59,21.17,23.57,46.67,36,73.73,36s52.58-12.45,73.75-36c12-13.37,10.89-26.6-2.47-38.6s-31.25,2.44-71.28,2.44c-42.6,0-57.91-14.43-71.27-2.43Z"/><path class="cls-1" d="M253.3,210.59a14,14,0,0,0,10.46-4.66c2.56-2.85,6.54-6.25,11-6.25s8.4,3.4,11,6.25a14.06,14.06,0,0,0,20.91-18.79c-9.15-10.18-20.17-15.57-31.87-15.57S252,177,242.85,187.14a14.05,14.05,0,0,0,10.45,23.45Z"/><path class="cls-1" d="M439.16,268.14a58.76,58.76,0,0,0-48.43-57.76l-1-.18-.91-.52h0l-2.43-1.4-.49-2.75A168.76,168.76,0,0,0,219.68,66.75l-.23,0h-.75A25.33,25.33,0,0,1,219,16.11a8,8,0,0,0,8-8.06,8,8,0,0,0-8-8,41.44,41.44,0,0,0-.08,82.88h.21l.28,0h.39A152.63,152.63,0,0,1,371.48,218.48a8,8,0,0,0,8,7.15h.09l.84,0h.1A42.54,42.54,0,1,1,363.27,307l1.83.81-1.83-.81h0a7.91,7.91,0,0,0-3.26-.7,8.17,8.17,0,0,0-4,1.08,8,8,0,0,0-3,3h0a152.92,152.92,0,0,1-266.79,0h0a7.94,7.94,0,0,0-3-3,8.14,8.14,0,0,0-4-1.08,7.91,7.91,0,0,0-3.26.7h0A42.54,42.54,0,1,1,58.58,225.6h.17l.77,0h.14a8.06,8.06,0,0,0,8-7.16h0a153.47,153.47,0,0,1,89-122.09,8,8,0,0,0,3.48-3A8.18,8.18,0,0,0,161.38,89a8,8,0,0,0-8.07-8,7.85,7.85,0,0,0-3.31.72A169.86,169.86,0,0,0,53.31,205.54l-.75,4.11-4.11.73a58.66,58.66,0,1,0,23.15,115l4.07-.92L78,327.93a169,169,0,0,0,283.25,0l2.28-3.49,4.07.92a58.71,58.71,0,0,0,71.61-57.21Z"/></g></g></svg>