<svg xmlns="http://www.w3.org/2000/svg" viewBox="0 0 303.21 421.23"><defs><style>.cls-1{fill:#ff7643;}</style></defs><g id="Calque_2" data-name="Calque 2"><g id="Calque_1-2" data-name="Calque 1"><path class="cls-1" d="M290.78,319.29,258.58,300a57.21,57.21,0,0,0-14.89-92.12,104.79,104.79,0,0,0,7.86-39.74V102.24l0-2.36h0a101.91,101.91,0,0,0-70-95.22A96.91,96.91,0,0,0,146.37.16,98.55,98.55,0,0,0,80.87,30,103,103,0,0,0,51.93,94.75c-.19,2.48-.27,5-.27,7.49v65.93h0a104.79,104.79,0,0,0,7.86,39.74A57.21,57.21,0,0,0,44.63,300L11.79,319.71A29.9,29.9,0,0,0,0,343.5V414a7.26,7.26,0,0,0,7.26,7.26H295.94a7.26,7.26,0,0,0,7.27-7.26V343.5a30.11,30.11,0,0,0-12.43-24.21Zm-248.71-60a42.24,42.24,0,0,1,29.36-40.44,7.35,7.35,0,0,0,4.38-10.22,89.85,89.85,0,0,1-9.62-40.43c0-5.87-.13-67,.24-72.37A88.49,88.49,0,0,1,91.27,40.15a84,84,0,0,1,85.86-21.66A87.39,87.39,0,0,1,237,100.32l0,67.85a89.72,89.72,0,0,1-9.62,40.43,7.34,7.34,0,0,0,4.39,10.22,42.33,42.33,0,0,1,13.54,73.28l-25.87-15.46-12.33-9.26-14.09-33h0a74.72,74.72,0,0,0,34.53-63.37V98.61a7.25,7.25,0,0,0-5.87-7.12,82.67,82.67,0,0,1-52.58-35,7.37,7.37,0,0,0-12,0A82.26,82.26,0,0,1,83.51,92.87a7.28,7.28,0,0,0-7.86,7.23v71a74.65,74.65,0,0,0,34.52,63.36l-13.37,31L96,267.47l-11.6,8.74L57.86,292.1a42.13,42.13,0,0,1-15.79-32.84Zm138.5-34.21h0a56.74,56.74,0,0,1-26.2,6.32h-5.53A56.52,56.52,0,0,1,122.66,225a60.16,60.16,0,0,1-32.5-54v-63.5a97.36,97.36,0,0,0,73-35,96.65,96.65,0,0,0,49.95,31.84v66.68a60.2,60.2,0,0,1-32.49,54Zm-57.48,16a71.08,71.08,0,0,0,25.75,4.81h5.52a70.92,70.92,0,0,0,25.76-4.81l12,27.9L151.6,293.4,111,269ZM288.68,406.71H14.53V343.5a15.2,15.2,0,0,1,5.36-11.76l40.67-24.38h0l31.89-19.12,10-7.47,45.45,27.34h0a7.29,7.29,0,0,0,7.49,0l45.46-27.36,10.58,7.91,71.29,42.65a15.29,15.29,0,0,1,6,12.19Z"/></g></g></svg>