<svg xmlns="http://www.w3.org/2000/svg" viewBox="0 0 350.2 421.23"><defs><style>.cls-1{fill:#ff7643;}</style></defs><g id="Calque_2" data-name="Calque 2"><g id="Calque_1-2" data-name="Calque 1"><path class="cls-1" d="M231.8,259.48l-.45-.05A9.57,9.57,0,0,1,222.4,250v-5.52a83.5,83.5,0,0,0,8.56-7,87,87,0,0,0,26.41-56.75c5.15-2,11.82-7.4,15.44-21.67,2.31-9.11,1.73-16.61-1.72-22.29a17.92,17.92,0,0,0-3.75-4.36c2.58-8.33,4.64-21.16,5.55-41.21,1.13-25-5.82-45.54-20.67-61.08C223.85.34,177.08,0,175.1,0S126.36.34,98,30C83.14,45.57,76.19,66.12,77.32,91.12c.91,20,3,32.87,5.55,41.2a17.89,17.89,0,0,0-3.75,4.36c-3.45,5.68-4,13.18-1.72,22.29,3.63,14.34,10.35,19.72,15.51,21.7,2.37,26.28,15.58,49.17,34.9,63.52V250a9.56,9.56,0,0,1-9,9.48C45.54,265.49,0,306.27,0,365.87v49a6.38,6.38,0,0,0,6.38,6.38H343.82a6.38,6.38,0,0,0,6.38-6.38v-49c0-59.46-45.36-100.19-118.41-106.38Zm-56.7,20.13-34.73-27.5a1.36,1.36,0,0,1,0-.2,78.24,78.24,0,0,0,30.72,7.94c1.34.06,2.68.1,4,.1a79.67,79.67,0,0,0,34.7-8c0,.05,0,.1,0,.14Zm-39.87-15.29,31.51,24.95L154.2,310.15l-25.14-40.81a22.27,22.27,0,0,0,6.17-5Zm79.74,0a22.31,22.31,0,0,0,6.18,5L196,310.15l-12.54-20.88Zm45.47-108.49a35.39,35.39,0,0,1-2.75,7.51V147a13,13,0,0,0,3.05-2.26c.93,2.65.88,6.46-.3,11.11ZM107.16,38.9c24.55-25.74,67.52-26.14,67.94-26.14s43.4.4,68,26.14c12.31,12.91,18.05,30.28,17.09,51.63-1.09,23.91-3.79,35.3-5.87,40.65-2.73-16.39-10.75-48.37-33.6-47.21-13.77.56-27.1,3.78-35.86,6.4a33.93,33.93,0,0,1-19.41,0h0c-8.75-2.61-22.08-5.83-35.85-6.4l-1,0c-21.92,0-30,31.09-32.64,47.24-2.08-5.35-4.78-16.74-5.87-40.65-1-21.35,4.78-38.72,17.09-51.63ZM89.43,144.68A13.21,13.21,0,0,0,92.52,147v16.32a34.51,34.51,0,0,1-2.75-7.48c-1.31-5.18-1.17-8.78-.34-11.15Zm16,30.58a7.52,7.52,0,0,0,0-.82c0-.11-.09-.19-.11-.3,0-.68-.09-1.35-.09-2V145.51c.07,0,.17-.1.23-.15a6.41,6.41,0,0,0,2-4.06c1.34-14.77,8.39-45.06,21.54-44.58,12.46.51,24.68,3.48,32.74,5.88a46.54,46.54,0,0,0,26.71,0c8.06-2.4,20.27-5.37,32.73-5.88,13.15-.32,20.19,29.81,21.55,44.59a6.41,6.41,0,0,0,2,4.05c.07.06.16.11.22.17v28.81a74.55,74.55,0,0,1-22.76,53.82,67.73,67.73,0,0,1-50.43,18.94c-36.27-1.78-64.81-33.07-66.31-71.84Zm232,233.21H286.23V362.88a6.38,6.38,0,0,0-12.76,0v45.59H76.74V362.88a6.38,6.38,0,0,0-12.76,0v45.59H12.77v-42.6c0-51.31,39.5-86.76,103.3-93.28l32.77,53.18a6.38,6.38,0,0,0,5.43,3h0a6.37,6.37,0,0,0,5.43-3.1l15.37-25.57,15.36,25.57a6.39,6.39,0,0,0,5.44,3.1h0a6.38,6.38,0,0,0,5.43-3l32.77-53.18c63.8,6.54,103.31,42,103.31,93.28Z"/></g></g></svg>