<svg xmlns="http://www.w3.org/2000/svg" viewBox="0 0 399.47 399.65"><defs><style>.cls-1{fill:#ff7643;}</style></defs><g id="Calque_2" data-name="Calque 2"><g id="Calque_1-2" data-name="Calque 1"><path class="cls-1" d="M267.55,193.7l-19.43,59.5a17.26,17.26,0,0,1-16.62,12.07H168.85a17.49,17.49,0,0,1-16.8-12.07L132.8,193.7a17.28,17.28,0,0,1,6.3-19.6l50.75-36.93a17.9,17.9,0,0,1,20.65,0l50.57,36.93a17.61,17.61,0,0,1,6.48,19.6Z"/><path class="cls-1" d="M360.77,318a198.62,198.62,0,0,0,38.7-118.19v-.48c0-.49,0-.93,0-1.28s0-.6-.05-.67a8.86,8.86,0,0,1-.09-1.25h0A198.38,198.38,0,0,0,364.11,86.41,199.4,199.4,0,0,0,199.65,0,198.29,198.29,0,0,0,88.37,34,201,201,0,0,0,16,121.5,198.64,198.64,0,0,0,0,198.82v1A199.38,199.38,0,0,0,134,388.3a9.77,9.77,0,0,1,1.88.88,7.07,7.07,0,0,0,2.25.84,8.55,8.55,0,0,1,1.21.3,200.53,200.53,0,0,0,60.34,9.33,191.81,191.81,0,0,0,59.71-9.3,10.61,10.61,0,0,1,1.4-.35h0l.18-.05,1.34-.46.05,0A199.73,199.73,0,0,0,360.77,318Zm-21.19-5.95a7.25,7.25,0,0,0-.95,0l-62.44,2.62H276a6.93,6.93,0,0,0-4.2,1.51,7.17,7.17,0,0,0-2.46,3.8l0,.17L255,371.23a10,10,0,0,1-7,6.93,181.2,181.2,0,0,1-48.34,6.49A178.59,178.59,0,0,1,150.53,378a10,10,0,0,1-6.89-6.93l-14.16-50.86a7.93,7.93,0,0,0-2.64-4,6.66,6.66,0,0,0-4.07-1.51h-.19L60.14,312H58.25a10,10,0,0,1-8.08-4.1,183,183,0,0,1-35-99.2,10,10,0,0,1,4.44-8.82l44.1-29.4a7.41,7.41,0,0,0,3.39-6.18,7.18,7.18,0,0,0-.29-2v0L49.88,102l-.22-.46a10,10,0,0,1,.83-10.32,182.17,182.17,0,0,1,82.78-63.69,10,10,0,0,1,11.14,2.83l.3.22L195.37,67.3l.2.15a5.73,5.73,0,0,0,1.83.93,7.14,7.14,0,0,0,2.25.34,8.35,8.35,0,0,0,2.44-.35,6,6,0,0,0,1.81-.91l.21-.16,50.67-36.69.29-.22a10,10,0,0,1,11.16-2.83A184.13,184.13,0,0,1,349,91.22a10,10,0,0,1,.84,10.37c-.1.2-.17.34-.21.44l-17,60.25v0a7.32,7.32,0,0,0,3.11,8.18h0l44.1,29.4a10,10,0,0,1,4.44,8.82,183.67,183.67,0,0,1-35,99.38,10,10,0,0,1-9.72,4Z"/></g></g></svg>